PathFileType	4	(X/Y/Z)	4_coords_data.trc
DataRate	CameraRate	NumFrames	NumMarkers	Units	OrigDataRate	OrigDataStartFrame	OrigNumFrames
30.0	30.0	8	21	m	30.0	39	57
Frame#	Time	THUMB_TIP	THUMB_IP	THUMB_MCP	THUMB_CMC	INDEX_TIP	INDEX_DIP	INDEX_PIP	INDEX_MCP	MIDDLE_TIP	MIDDLE_DIP	MIDDLE_PIP	MIDDLE_MCP	RING_TIP	RING_DIP	RING_PIP	RING_MCP	PINKY_TIP	PINKY_DIP	PINKY_PIP	PINKY_MCP	WRIST
X1	Y1	Z1	X2	Y2	Z2	X3	Y3	Z3	X4	Y4	Z4	X5	Y5	Z5	X6	Y6	Z6	X7	Y7	Z7	X8	Y8	Z8	X9	Y9	Z9	X10	Y10	Z10	X11	Y11	Z11	X12	Y12	Z12	X13	Y13	Z13	X14	Y14	Z14	X15	Y15	Z15	X16	Y16	Z16	X17	Y17	Z17	X18	Y18	Z18	X19	Y19	Z19	X20	Y20	Z20	X21	Y21	Z21
37	1.2666666666666608	0.5278623824554606	-0.016206124470979022	-0.14932649975406043	0.5085738501005859	-0.016401894012803675	-0.1368399392235761	0.481973951294728	-0.01652222713715501	-0.12067668140043589	0.47593130391619454	-0.024188072495615054	-0.07714954931481734	0.5759491525269741	0.01767166930725217	-0.14678410569367306	0.5635113000567116	0.028289980657396296	-0.1390026347530741	0.5431902547758783	0.03677528928120155	-0.12687561989973528	0.5088443237734056	0.021513807951800135	-0.10684863048031111	0.5944420249556708	0.011507542771471369	-0.12642787257881988	0.5832188171453023	0.022470425051298037	-0.11738050729582444	0.5603284401193622	0.033765469271758164	-0.10331415859873297	0.5204830671022556	0.022404865448931166	-0.08659797330099228	0.5964965183511775	0.006639359311935489	-0.09895728085357983	0.5867339349249966	0.018528455008402722	-0.08955827195013129	0.5671245253970281	0.029216542125957146	-0.07853938676459682	0.53007163112222	0.01595498704399345	-0.06926927259766613	0.5907935491417794	-0.006280772926975486	-0.07069125242792246	0.5827655036558322	0.0038377282545128955	-0.05945886979929997	0.5661254662718784	0.012473355086943916	-0.050006509032189145	0.5313236959251352	0.0032560881376185735	-0.05218876055697377	0.4622830810018609	-0.023011742144276925	-0.051989820119430985
38	1.299999999999994	0.5257670447467278	-0.01699176345943565	-0.15201471063869287	0.5077353866278022	-0.017223785537971548	-0.13777373204741425	0.4816831294735344	-0.017200187767982933	-0.12074142919920372	0.4760171068722928	-0.024434954363312333	-0.07709003357210693	0.5789179274270417	0.022324169998902077	-0.14839165241513286	0.5650643513020537	0.030290492159195326	-0.139870141998101	0.5440159026393672	0.03567345531590682	-0.12722117565504604	0.5098654335062196	0.019878413945034867	-0.1072737893581301	0.5995400114811228	0.01742957267030054	-0.12570554716164195	0.585933665641194	0.02536165329725848	-0.11676410153961372	0.5613309754922745	0.03296333274620311	-0.10311376612279138	0.5214373260126475	0.020704759788833682	-0.08716472097126235	0.6017288770273619	0.011284534830311665	-0.0974875300700261	0.589191956028259	0.020552309533279356	-0.08843579189897367	0.5678751416539386	0.028304562659843824	-0.07815590982803329	0.5309027497952014	0.014166934819997756	-0.06991633742978438	0.5953201921234702	-0.004320283611832454	-0.06680623944526859	0.5845503066532449	0.00442082296574009	-0.05677615356538948	0.5663914917567805	0.01144491235875611	-0.04891920576392987	0.5319445018706804	0.001544407288220917	-0.05295260856246568	0.4622830810018609	-0.023011742144276925	-0.051989820119431
39	1.3333333333333275	0.5236633282355483	-0.017557813627284036	-0.15431563252868374	0.5069516744581062	-0.01789164769649143	-0.13854828706924954	0.4814091199254015	-0.017745182116498337	-0.12076131274032884	0.4761299249342621	-0.024679978116941226	-0.07701284185644801	0.5809767099026255	0.025975693781750908	-0.14935671728706734	0.566206886530455	0.03149966885195299	-0.14044952822549042	0.54477535577262	0.03433582431189053	-0.1276177105606763	0.5106655963687009	0.018562250674121095	-0.10758386963836142	0.6029862942812327	0.022112414960497317	-0.12453662871933396	0.587893754926324	0.027366379687551734	-0.11601541340299551	0.5621770259622008	0.03186303352981523	-0.1030601246910956	0.5221743332395578	0.01930732406025837	-0.08762358830323012	0.6053920806905083	0.015076755236016925	-0.09586145674044055	0.590972671447667	0.021857609214089857	-0.08742933622330394	0.5685516932261775	0.027130946297085234	-0.07795982564457801	0.5315368693444741	0.012719492903621621	-0.07041438608849397	0.5986536040700808	-0.002729283722568865	-0.06319326701139184	0.5858135518005442	0.004593426120684474	-0.054561292830065306	0.5666212463870013	0.010264881336452758	-0.04821290503088138	0.5323865743803831	0.0002227898754724178	-0.05350696610802941	0.4622830810018608	-0.023011742144276925	-0.051989820119430985
40	1.3666666666666607	0.5216869892942962	-0.017833889290920557	-0.15626786941446388	0.5062702070084787	-0.01834892155222756	-0.13923679294462457	0.48121113910663404	-0.018119839852499986	-0.12077573562209837	0.4761766038533939	-0.024887298364936195	-0.07697225448113953	0.5822825613123365	0.028646578453750515	-0.1498648678264045	0.5669729349521677	0.03214356754498915	-0.14084342625602422	0.5453657154940363	0.03305916500830064	-0.12802548642259803	0.5112187376067208	0.017607059337162112	-0.10780538688052993	0.6052466992758877	0.02565515314028577	-0.1232930240757159	0.589238975569951	0.02858161865379838	-0.11534389951054455	0.5628570744745724	0.030655240567372122	-0.10313304627445925	0.5227067025275492	0.01825817944962116	-0.08795383584840491	0.6079191419021072	0.01809872559471737	-0.09436940796971414	0.5922639093717423	0.02260824983764309	-0.08665073674192664	0.5691669464608134	0.025837895910232	-0.07791691343612336	0.5319975833105448	0.011633123007390167	-0.07074867070989362	0.601069051854213	-0.0016338426060098499	-0.06017493629407726	0.586762483862067	0.004352328411952322	-0.052930085099621244	0.566913239140712	0.008954416765494133	-0.04786646132035427	0.5326806097620107	-0.0007087181882633464	-0.05383591353022646	0.4622830810018609	-0.023011742144276925	-0.051989820119430985
41	1.3999999999999937	0.5199304040580799	-0.017785632832286624	-0.15782707192610432	0.5056958868693895	-0.01854681129758151	-0.13980488760375184	0.48104968804744075	-0.018311986782432843	-0.12079621218761472	0.4761381119009124	-0.025078149488906742	-0.07697857347914053	0.583041091827625	0.03036613406299382	-0.1501466189696424	0.5674596597655942	0.0323705887858583	-0.14113545166677285	0.5457896327969821	0.03192864811309459	-0.12839871532572444	0.511539589458321	0.016967365788455147	-0.10798473343824652	0.6066128818980486	0.028043344480295662	-0.12228999834853893	0.5901169882185889	0.029129369671674565	-0.11489364512552083	0.5633718630853195	0.029430884783457012	-0.10331707740261048	0.5230482993033404	0.017547034896785885	-0.08818657057726802	0.6095760106671615	0.0202007042207607	-0.09315880863845963	0.5931888561189139	0.022857025089729976	-0.08612993068725514	0.5697038873121708	0.0245427900146874	-0.0780185549861742	0.532313369541515	0.010883044538442577	-0.07094173590084404	0.6027407821484759	-0.0011178185122974194	-0.057903339294132064	0.5875066393763771	0.003832763662939942	-0.05186905142185297	0.5672596069923029	0.007636406468802481	-0.04781911314532876	0.5328586674958519	-0.0012901181457311006	-0.05396532914117956	0.462283081001861	-0.023011742144276925	-0.051989820119430985
42	1.4333333333333271	0.5185585022325105	-0.017551021558884217	-0.15894171611312594	0.5052422469966394	-0.0185194869244526	-0.14024039473390704	0.48091288388917686	-0.018351610862185286	-0.12082715419006804	0.47606353930237766	-0.025175546900278012	-0.07701154334157591	0.5835143730942158	0.03134985293324555	-0.15025844718264955	0.5678143066420924	0.03232622208829938	-0.1412832248081359	0.546127681844246	0.03099797928760961	-0.12863664784281253	0.5117157100108772	0.016625639128855063	-0.1080724039495768	0.6074181264195104	0.02949103913872042	-0.12153488624096262	0.5906783935099419	0.029239776257960703	-0.11462704945358387	0.5637449284078784	0.028295729139893977	-0.10353169985860519	0.523250068291812	0.017130022658399913	-0.08831193560453912	0.6106022100855946	0.021596609502520292	-0.09225125411696883	0.5938130693713476	0.022865397529260756	-0.0858080459858888	0.5701126713101069	0.023439482450370974	-0.07818298616696966	0.5325015487259909	0.010432182234128229	-0.07104614981974008	0.6038472957351712	-0.0007401575646438507	-0.05636081787589953	0.5880208234993389	0.0033708751851473373	-0.051298981618317224	0.56754596818348	0.006618110282445411	-0.04797516107299338	0.532948411557734	-0.0015889595913575194	-0.05401970659890512	0.462283081001861	-0.023011742144276925	-0.05198982011943097
43	1.4666666666666603	0.5175953229006173	-0.017268183943355497	-0.1596663462128174	0.5049137460683857	-0.01837989037063459	-0.14053674303168068	0.48080516813077023	-0.01831169337636762	-0.12084939127996214	0.4759990350116934	-0.02522341687972318	-0.0770427803330414	0.5838104437823994	0.03173871617132229	-0.15026795622596398	0.5680565406292939	0.03209672302653732	-0.14134123417729527	0.5463619129912395	0.030281634633028576	-0.12876910552817927	0.5117572423766734	0.01651059467987659	-0.10811695493154452	0.6078227289285429	0.030264951990967015	-0.12107834415120942	0.5909748763299904	0.029093581358529463	-0.1145378737049107	0.5639532396737001	0.02740158965731887	-0.1037500163412601	0.5233224337044378	0.01695650512265423	-0.0883816808311324	0.6111773206367885	0.02252072526487181	-0.0916595644663134	0.5941793634612328	0.022810925802589588	-0.08566079496700095	0.5703686614972684	0.022653063164903564	-0.0783665828525303	0.5325908345076761	0.010218181940456428	-0.0710912580571462	0.6045102055337329	-0.0002940844749662608	-0.05539685803731123	0.5883251813920469	0.00319579381129953	-0.05105338672048508	0.5677210099884308	0.0060572201963243755	-0.04820867604741401	0.5329882088801301	-0.001722517097969667	-0.05403891324696228	0.4622830810018609	-0.023011742144276925	-0.051989820119431
44	1.4999999999999936	0.5170434889508938	-0.017036557048026535	-0.16005974982934773	0.5046936277291131	-0.018244735554694635	-0.14072012127813774	0.4807187085676379	-0.018268852360344257	-0.12087011700659128	0.47594657112616057	-0.025243055435765993	-0.07706969240017418	0.5839360219867649	0.03189812503942957	-0.15026662980155422	0.5681536289460039	0.03190559486945799	-0.14138316121610994	0.5464499754210058	0.029854846633157073	-0.12886295002227788	0.5117114507755284	0.016541384598062536	-0.10813560749855711	0.6079437967292016	0.030692025048590033	-0.1209081989374055	0.5910559890268371	0.028989726692712603	-0.1145912272487295	0.564001317598593	0.02688304058627955	-0.10396032053487335	0.5233088341137634	0.01693891119050217	-0.08842378297346935	0.6114140939560477	0.023314082929554947	-0.09135055767936263	0.594318937888884	0.022956785444080086	-0.08563846720859905	0.5704549741937845	0.022297894536445373	-0.07854924450573421	0.5326103506007027	0.0101537035140975	-0.07113143327123315	0.6048615794299874	0.00028482999499046535	-0.054879192050278414	0.5884712457186548	0.0033428140322132593	-0.051005473622301664	0.5677910957616554	0.005899415923977025	-0.048435025505134816	0.5329889512102399	-0.0017261935488043223	-0.054051453710944275	0.4622830810018609	-0.023011742144276925	-0.051989820119431
